<svg width="68" height="68" viewBox="0 0 68 68" fill="none" xmlns="http://www.w3.org/2000/svg">
<g clip-path="url(#clip0_221_218)">
<path d="M11.438 31.401C10.808 30.979 10.245 30.463 9.782 29.865C9.266 29.25 8.798 28.599 8.36 27.927C7.339 26.432 6.542 24.802 5.985 23.078C5.318 21.078 4.995 19.161 4.995 17.286C4.995 15.192 5.448 13.364 6.334 11.828C6.985 10.63 7.959 9.62502 9.131 8.92202C10.266 8.21402 11.584 7.82802 12.917 7.80202C13.386 7.80202 13.891 7.87002 14.427 8.00002C14.812 8.10902 15.281 8.28102 15.854 8.49502C16.583 8.77602 16.984 8.94802 17.12 8.99002C17.547 9.14602 17.906 9.21402 18.188 9.21402C18.402 9.21402 18.704 9.14602 19.047 9.04202C19.24 8.97402 19.604 8.85402 20.125 8.63102C20.641 8.44302 21.047 8.28202 21.37 8.16202C21.865 8.01602 22.344 7.88102 22.771 7.81302C23.292 7.73502 23.807 7.70902 24.302 7.75002C25.25 7.81302 26.115 8.01602 26.891 8.30702C28.25 8.85403 29.349 9.70802 30.167 10.922C29.818 11.136 29.5 11.38 29.198 11.656C28.547 12.229 28 12.906 27.557 13.661C26.984 14.687 26.692 15.849 26.698 17.02C26.719 18.463 27.089 19.734 27.818 20.833C28.339 21.635 29.026 22.317 29.865 22.88C30.282 23.161 30.641 23.354 30.985 23.484C30.824 23.984 30.652 24.468 30.449 24.948C29.985 26.026 29.433 27.057 28.782 28.031C28.204 28.87 27.751 29.495 27.407 29.911C26.871 30.546 26.355 31.031 25.834 31.369C25.261 31.749 24.584 31.952 23.896 31.952C23.427 31.973 22.964 31.91 22.516 31.785C22.131 31.655 21.75 31.514 21.375 31.353C20.984 31.176 20.583 31.02 20.172 30.9C19.662 30.765 19.141 30.702 18.62 30.702C18.084 30.702 17.563 30.77 17.073 30.895C16.656 31.015 16.255 31.155 15.859 31.327C15.302 31.561 14.932 31.718 14.718 31.785C14.291 31.91 13.848 31.988 13.4 32.014C12.707 32.014 12.061 31.816 11.421 31.415L11.438 31.401ZM20.578 6.78602C19.672 7.23902 18.807 7.43202 17.948 7.36902C17.813 6.50402 17.948 5.61902 18.307 4.65002C18.625 3.82202 19.052 3.07702 19.64 2.41002C20.249 1.71702 20.984 1.14402 21.812 0.733023C22.692 0.280023 23.531 0.0350234 24.333 -0.000976562C24.437 0.905024 24.333 1.79602 24 2.75902C23.693 3.61302 23.24 4.40002 22.667 5.10302C22.084 5.79602 21.365 6.36902 20.552 6.78502L20.578 6.78602Z" fill="white"/>
</g>
<path d="M41.6 44.7809V52.0189C41.6 52.9809 40.844 53.7499 39.881 53.7499C38.925 53.7499 38 52.9749 38 52.0189V44.7809C38 43.8369 38.925 43.0619 39.881 43.0619C40.825 43.0619 41.6 43.8369 41.6 44.7809V44.7809ZM42.275 54.5939C42.275 55.6189 43.1 56.4439 44.125 56.4439H45.369L45.388 60.2629C45.388 62.5689 48.838 62.5509 48.838 60.2629V56.4439H51.163V60.2629C51.163 62.5569 54.632 62.5629 54.632 60.2629V56.4439H55.894C56.906 56.4439 57.731 55.6189 57.731 54.5939V43.3819H42.275V54.5939ZM57.775 42.7749H42.206C42.206 40.0999 43.806 37.7749 46.181 36.5629L44.987 34.3569C44.812 34.0509 45.256 33.8569 45.406 34.1189L46.618 36.3439C48.799 35.3749 51.306 35.4249 53.387 36.3439L54.593 34.1249C54.749 33.8559 55.187 34.0559 55.012 34.3629L53.818 36.5629C56.174 37.7749 57.774 40.1009 57.774 42.7749H57.775ZM47.106 39.3059C47.106 38.9499 46.819 38.6499 46.45 38.6499C46.094 38.6499 45.813 38.9499 45.813 39.3059C45.813 39.6619 46.101 39.9619 46.45 39.9619C46.819 39.9619 47.106 39.6619 47.106 39.3059ZM54.194 39.3059C54.194 38.9499 53.906 38.6499 53.556 38.6499C53.187 38.6499 52.9 38.9499 52.9 39.3059C52.9 39.6619 53.188 39.9619 53.556 39.9619C53.906 39.9619 54.194 39.6619 54.194 39.3059ZM60.119 43.0629C59.175 43.0629 58.4 43.8189 58.4 44.7819V52.0199C58.4 52.9819 59.175 53.7509 60.119 53.7509C61.082 53.7509 62 52.9759 62 52.0199V44.7819C62 43.8199 61.075 43.0629 60.119 43.0629Z" fill="white"/>
<path d="M0.646447 66.6464C0.451184 66.8417 0.451184 67.1583 0.646447 67.3536C0.841709 67.5488 1.15829 67.5488 1.35355 67.3536L0.646447 66.6464ZM1.35355 67.3536L67.3536 1.35355L66.6464 0.646447L0.646447 66.6464L1.35355 67.3536Z" fill="white"/>
<defs>
<clipPath id="clip0_221_218">
<rect width="32" height="32" fill="white" transform="translate(2)"/>
</clipPath>
</defs>
</svg>
