<svg width="54" height="54" viewBox="0 0 54 54" fill="none" xmlns="http://www.w3.org/2000/svg">
<path d="M12.825 21.5675V33.7816C12.825 35.405 11.5493 36.7027 9.92419 36.7027C8.31094 36.7027 6.75 35.3948 6.75 33.7816V21.5675C6.75 19.9745 8.31094 18.6667 9.92419 18.6667C11.5172 18.6667 12.825 19.9745 12.825 21.5675ZM13.9641 38.1269C13.9641 39.8566 15.3562 41.2488 17.0859 41.2488H19.1852L19.2172 47.6933C19.2172 51.5847 25.0391 51.5543 25.0391 47.6933V41.2488H28.9626V47.6933C28.9626 51.5645 34.8165 51.5746 34.8165 47.6933V41.2488H36.9461C38.6539 41.2488 40.0461 39.8566 40.0461 38.1269V19.2067H13.9641V38.1269ZM40.1203 18.1823H13.8476C13.8476 13.6683 16.5476 9.74484 20.5554 7.69959L18.5406 3.97697C18.2453 3.46059 18.9945 3.13322 19.2476 3.57534L21.2929 7.33003C24.9733 5.69484 29.2039 5.77922 32.7156 7.33003L34.7507 3.58547C35.0139 3.13153 35.7531 3.46903 35.4577 3.98709L33.4429 7.69959C37.4186 9.74484 40.1186 13.67 40.1186 18.1823H40.1203ZM22.1164 12.3284C22.1164 11.7277 21.6321 11.2214 21.0094 11.2214C20.4086 11.2214 19.9344 11.7277 19.9344 12.3284C19.9344 12.9292 20.4204 13.4354 21.0094 13.4354C21.6321 13.4354 22.1164 12.9292 22.1164 12.3284ZM34.0774 12.3284C34.0774 11.7277 33.5914 11.2214 33.0007 11.2214C32.3781 11.2214 31.8937 11.7277 31.8937 12.3284C31.8937 12.9292 32.3797 13.4354 33.0007 13.4354C33.5914 13.4354 34.0774 12.9292 34.0774 12.3284ZM44.0758 18.6683C42.4828 18.6683 41.175 19.9441 41.175 21.5692V33.7833C41.175 35.4067 42.4828 36.7043 44.0758 36.7043C45.7009 36.7043 47.25 35.3965 47.25 33.7833V21.5692C47.25 19.9458 45.6891 18.6683 44.0758 18.6683Z" fill="white"/>
</svg>
