<svg width="28" height="26" viewBox="0 0 28 26" fill="none" xmlns="http://www.w3.org/2000/svg">
<path d="M12.7143 2.63573C13.2973 1.667 14.7018 1.667 15.2847 2.63573L18.1155 7.33949C18.325 7.68751 18.6666 7.93571 19.0623 8.02736L24.4106 9.26604C25.5121 9.52114 25.9461 10.8568 25.2049 11.7107L21.6061 15.8564C21.3398 16.1632 21.2093 16.5648 21.2445 16.9694L21.7191 22.4387C21.8169 23.5651 20.6807 24.3906 19.6396 23.9496L14.5847 21.808C14.2107 21.6496 13.7884 21.6496 13.4144 21.808L8.35945 23.9496C7.3184 24.3906 6.18218 23.5651 6.27994 22.4387L6.7546 16.9694C6.78972 16.5648 6.65923 16.1632 6.39297 15.8564L2.79418 11.7107C2.05301 10.8568 2.48701 9.52114 3.58848 9.26604L8.93678 8.02736C9.33249 7.93571 9.67411 7.68751 9.88355 7.33949L12.7143 2.63573Z" stroke="url(#paint0_linear_683_383)" stroke-width="3"/>
<defs>
<linearGradient id="paint0_linear_683_383" x1="9.38153" y1="1.90918" x2="29.6703" y2="6.69244" gradientUnits="userSpaceOnUse">
<stop stop-color="#0C2D38"/>
<stop offset="1" stop-color="#101734"/>
</linearGradient>
</defs>
</svg>
