<svg width="54" height="54" viewBox="0 0 54 54" fill="none" xmlns="http://www.w3.org/2000/svg">
<g clip-path="url(#clip0_151_1043)">
<path d="M15.9265 52.9889C14.8634 52.2768 13.9133 51.406 13.132 50.3969C12.2613 49.3591 11.4715 48.2605 10.7324 47.1265C9.00946 44.6037 7.66452 41.8531 6.72458 38.9439C5.59902 35.5689 5.05396 32.3339 5.05396 29.1699C5.05396 25.6362 5.81839 22.5515 7.31352 19.9595C8.41208 17.9379 10.0557 16.2419 12.0335 15.0556C13.9488 13.8609 16.1729 13.2095 18.4223 13.1656C19.2138 13.1656 20.066 13.2804 20.9705 13.4997C21.6201 13.6837 22.4116 13.9739 23.3785 14.335C24.6087 14.8092 25.2854 15.0995 25.5149 15.1704C26.2355 15.4336 26.8413 15.5484 27.3171 15.5484C27.6783 15.5484 28.1879 15.4336 28.7667 15.2581C29.0924 15.1434 29.7066 14.9409 30.5858 14.5645C31.4566 14.2473 32.1417 13.9756 32.6868 13.7731C33.5221 13.5267 34.3304 13.2989 35.051 13.1842C35.9301 13.0525 36.7992 13.0087 37.6345 13.0779C39.2343 13.1842 40.694 13.5267 42.0035 14.0178C44.2968 14.9409 46.1513 16.382 47.5317 18.4306C46.9428 18.7917 46.4061 19.2035 45.8965 19.6692C44.798 20.6362 43.8749 21.7786 43.1273 23.0527C42.1604 24.784 41.6676 26.7449 41.6778 28.721C41.7132 31.156 42.3376 33.3009 43.5678 35.1554C44.447 36.5088 45.6063 37.6597 47.0221 38.6097C47.7258 39.0839 48.3316 39.4096 48.9121 39.629C48.6404 40.4727 48.3501 41.2895 48.0076 42.0995C47.2246 43.9186 46.2931 45.6584 45.1945 47.302C44.2191 48.7179 43.4547 49.7725 42.8742 50.4745C41.9697 51.5461 41.099 52.3645 40.2198 52.9349C39.2528 53.5762 38.1104 53.9187 36.9494 53.9187C36.158 53.9542 35.3766 53.8479 34.6206 53.6369C33.971 53.4175 33.328 53.1796 32.6952 52.9079C32.0354 52.6092 31.3587 52.346 30.6651 52.1435C29.8045 51.9157 28.9253 51.8094 28.0461 51.8094C27.1416 51.8094 26.2625 51.9241 25.4356 52.1351C24.7319 52.3376 24.0552 52.5738 23.387 52.864C22.447 53.2589 21.8226 53.5239 21.4615 53.6369C20.741 53.8479 19.9934 53.9795 19.2374 54.0234C18.068 54.0234 16.9778 53.6892 15.8978 53.0126L15.9265 52.9889ZM31.3503 11.4511C29.8214 12.2155 28.3617 12.5412 26.9121 12.4349C26.6843 10.9752 26.9121 9.4818 27.518 7.84661C28.0546 6.44936 28.7751 5.19217 29.7674 4.06661C30.7951 2.89717 32.0354 1.93023 33.4326 1.23667C34.9176 0.472234 36.3335 0.0587969 37.6868 -0.00195312C37.8623 1.52692 37.6868 3.03048 37.1249 4.65555C36.6068 6.09667 35.8424 7.42474 34.8755 8.61105C33.8916 9.78049 32.6783 10.7474 31.3064 11.4494L31.3503 11.4511Z" fill="white"/>
</g>
<defs>
<clipPath id="clip0_151_1043">
<rect width="54" height="54" fill="white"/>
</clipPath>
</defs>
</svg>
