<svg width="28" height="26" viewBox="0 0 28 26" fill="none" xmlns="http://www.w3.org/2000/svg">
<path d="M12.7143 2.63475C13.2973 1.66602 14.7018 1.66602 15.2847 2.63475L18.1155 7.33852C18.325 7.68653 18.6666 7.93474 19.0623 8.02638L24.4106 9.26506C25.5121 9.52016 25.9461 10.8559 25.2049 11.7097L21.6061 15.8554C21.3398 16.1622 21.2093 16.5638 21.2445 16.9684L21.7191 22.4377C21.8169 23.5641 20.6807 24.3897 19.6396 23.9486L14.5847 21.8071C14.2107 21.6486 13.7884 21.6486 13.4144 21.8071L8.35945 23.9486C7.3184 24.3897 6.18218 23.5641 6.27994 22.4377L6.7546 16.9684C6.78972 16.5638 6.65923 16.1622 6.39297 15.8554L2.79418 11.7097C2.05301 10.8559 2.48701 9.52016 3.58848 9.26506L8.93678 8.02638C9.33249 7.93474 9.67411 7.68653 9.88355 7.33852L12.7143 2.63475Z" stroke="url(#paint0_linear_683_529)" stroke-width="3"/>
<defs>
<linearGradient id="paint0_linear_683_529" x1="9.25698" y1="1.9082" x2="29.6423" y2="6.67754" gradientUnits="userSpaceOnUse">
<stop stop-color="#67AB9F"/>
<stop offset="1" stop-color="#6FB1D7"/>
</linearGradient>
</defs>
</svg>
