<svg width="24" height="24" viewBox="0 0 24 24" fill="none" xmlns="http://www.w3.org/2000/svg">
<path d="M10.7143 1.63475C11.2973 0.66602 12.7018 0.666021 13.2847 1.63475L16.1155 6.33852C16.325 6.68653 16.6666 6.93474 17.0623 7.02638L22.4106 8.26506C23.5121 8.52016 23.9461 9.85587 23.2049 10.7097L19.6061 14.8554C19.3398 15.1622 19.2093 15.5638 19.2445 15.9684L19.7191 21.4377C19.8169 22.5641 18.6807 23.3897 17.6396 22.9486L12.5847 20.8071C12.2107 20.6486 11.7884 20.6486 11.4144 20.8071L6.35945 22.9486C5.3184 23.3897 4.18218 22.5641 4.27994 21.4377L4.7546 15.9684C4.78972 15.5638 4.65923 15.1622 4.39297 14.8554L0.794176 10.7097C0.0530134 9.85587 0.487011 8.52016 1.58848 8.26506L6.93678 7.02638C7.33249 6.93474 7.67411 6.68653 7.88355 6.33852L10.7143 1.63475Z" fill="white"/>
</svg>
