<svg width="20" height="20" viewBox="0 0 20 20" fill="none" xmlns="http://www.w3.org/2000/svg">
<g clip-path="url(#clip0_208_244)">
<path d="M13.0691 0H6.92976C1.32726 0 -0.000862122 1.32812 -0.000862122 6.93062V13.07C-0.000862122 18.6725 1.32726 20.0006 6.92976 20.0006H13.0691C18.6716 20.0006 19.9998 18.6725 19.9998 13.07V6.93062C19.9998 1.32812 18.6585 0 13.0691 0V0ZM16.1454 14.2675H14.6935C14.1435 14.2675 13.9741 13.8312 12.9848 12.8287C12.1254 11.9956 11.7448 11.885 11.5329 11.885C11.2335 11.885 11.1485 11.9694 11.1485 12.38V13.6919C11.1485 14.0437 11.0379 14.255 10.1066 14.255C8.56664 14.255 6.85789 13.3237 5.65976 11.5887C3.85289 9.04625 3.35851 7.14187 3.35851 6.74813C3.35851 6.53625 3.44289 6.33812 3.84976 6.33812H5.30476C5.67289 6.33812 5.81289 6.5075 5.95601 6.90125C6.67539 8.97812 7.87351 10.7975 8.36789 10.7975C8.55039 10.7975 8.63476 10.7131 8.63476 10.2475V8.1025C8.57914 7.11312 8.05851 7.02812 8.05851 6.67687C8.05851 6.5075 8.19851 6.33812 8.42289 6.33812H10.711C11.0204 6.33812 11.1341 6.5075 11.1341 6.87187V9.76562C11.1341 10.0781 11.2741 10.1888 11.3585 10.1888C11.541 10.1888 11.6973 10.0781 12.0354 9.73938C13.0804 8.5675 13.8291 6.76063 13.8291 6.76063C13.9266 6.54875 14.096 6.35063 14.4641 6.35063H15.9191C16.3554 6.35063 16.4529 6.575 16.3554 6.8875C16.1729 7.73375 14.3923 10.2469 14.3923 10.2469C14.2391 10.5006 14.1804 10.6112 14.3923 10.8944C14.5485 11.1062 15.0566 11.5456 15.3948 11.9394C16.0166 12.6456 16.4948 13.2381 16.6223 13.6481C16.7654 14.055 16.5541 14.2669 16.1435 14.2669L16.1454 14.2675Z" fill="black"/>
</g>
<defs>
<clipPath id="clip0_208_244">
<rect width="20" height="20" fill="white"/>
</clipPath>
</defs>
</svg>
