<svg width="32" height="32" viewBox="0 0 32 32" fill="none" xmlns="http://www.w3.org/2000/svg">
<g clip-path="url(#clip0_129_171)">
<path d="M20.9106 0H11.0876C2.12363 0 -0.00137329 2.125 -0.00137329 11.089V20.912C-0.00137329 29.876 2.12363 32.001 11.0876 32.001H20.9106C29.8746 32.001 31.9996 29.876 31.9996 20.912V11.089C31.9996 2.125 29.8536 0 20.9106 0V0ZM25.8326 22.828H23.5096C22.6296 22.828 22.3586 22.13 20.7756 20.526C19.4006 19.193 18.7916 19.016 18.4526 19.016C17.9736 19.016 17.8376 19.151 17.8376 19.808V21.907C17.8376 22.47 17.6606 22.808 16.1706 22.808C13.7066 22.808 10.9726 21.318 9.05563 18.542C6.16463 14.474 5.37363 11.427 5.37363 10.797C5.37363 10.458 5.50863 10.141 6.15963 10.141H8.48763C9.07663 10.141 9.30063 10.412 9.52963 11.042C10.6806 14.365 12.5976 17.276 13.3886 17.276C13.6806 17.276 13.8156 17.141 13.8156 16.396V12.964C13.7266 11.381 12.8936 11.245 12.8936 10.683C12.8936 10.412 13.1176 10.141 13.4766 10.141H17.1376C17.6326 10.141 17.8146 10.412 17.8146 10.995V15.625C17.8146 16.125 18.0386 16.302 18.1736 16.302C18.4656 16.302 18.7156 16.125 19.2566 15.583C20.9286 13.708 22.1266 10.817 22.1266 10.817C22.2826 10.478 22.5536 10.161 23.1426 10.161H25.4706C26.1686 10.161 26.3246 10.52 26.1686 11.02C25.8766 12.374 23.0276 16.395 23.0276 16.395C22.7826 16.801 22.6886 16.978 23.0276 17.431C23.2776 17.77 24.0906 18.473 24.6316 19.103C25.6266 20.233 26.3916 21.181 26.5956 21.837C26.8246 22.488 26.4866 22.827 25.8296 22.827L25.8326 22.828Z" fill="white"/>
</g>
<defs>
<clipPath id="clip0_129_171">
<rect width="32" height="32" fill="white"/>
</clipPath>
</defs>
</svg>
